<svg width="90" height="90" viewBox="0 0 90 90" fill="none" xmlns="http://www.w3.org/2000/svg">
<path d="M5 70.8451V19H23.1458C27.1946 19 30.5522 19.6913 33.2185 21.0738C35.8849 22.407 37.8599 24.2586 39.1437 26.6286C40.4769 28.9493 41.1434 31.591 41.1434 34.5535C41.1434 37.368 40.5015 39.9602 39.2178 42.3303C37.9834 44.651 36.033 46.5026 33.3667 47.8851C30.7004 49.2677 27.2934 49.9589 23.1458 49.9589H12.8508V70.8451H5ZM12.8508 43.5153H22.7755C26.4787 43.5153 29.1203 42.7253 30.7004 41.1453C32.3298 39.5158 33.1445 37.3186 33.1445 34.5535C33.1445 31.6897 32.3298 29.4678 30.7004 27.8877C29.1203 26.2583 26.4787 25.4436 22.7755 25.4436H12.8508V43.5153Z" fill="white"/>
<path d="M48.9034 70.8451V19H67.0492C71.0981 19 74.4557 19.6913 77.122 21.0738C79.7883 22.407 81.7633 24.2586 83.0471 26.6286C84.3803 28.9493 85.0469 31.591 85.0469 34.5535C85.0469 37.368 84.405 39.9602 83.1212 42.3303C81.8868 44.651 79.9364 46.5026 77.2701 47.8851C74.6038 49.2677 71.1968 49.9589 67.0492 49.9589H56.7542V70.8451H48.9034ZM56.7542 43.5153H66.6789C70.3821 43.5153 73.0237 42.7253 74.6038 41.1453C76.2332 39.5158 77.0479 37.3186 77.0479 34.5535C77.0479 31.6897 76.2332 29.4678 74.6038 27.8877C73.0237 26.2583 70.3821 25.4436 66.6789 25.4436H56.7542V43.5153Z" fill="white"/>
</svg>
