<svg width="754" height="548" viewBox="0 0 754 548" fill="none" xmlns="http://www.w3.org/2000/svg">
<path d="M391.705 531.652C516.318 581.203 652.221 506.379 704.595 462.773C796.606 357.691 739.311 220.714 699.162 165.361C520.755 -92.0035 131.793 19.0585 62.0607 97.5495C-7.67169 176.04 43.4956 334.624 146.736 334.624C249.976 334.624 235.939 469.714 391.705 531.652Z" fill="#292F38"/>
<path d="M572.646 312.04C532.537 312.04 500.022 279.525 500.022 239.416C500.022 199.307 532.537 166.792 572.646 166.792C612.755 166.792 645.27 199.307 645.27 239.416C645.27 279.525 612.755 312.04 572.646 312.04Z" fill="#4F5C70"/>
<path d="M462.252 145.249C422.142 145.249 389.627 112.734 389.627 72.6243C389.627 32.515 422.142 0 462.252 0C502.361 0 534.876 32.515 534.876 72.6243C534.876 112.734 502.361 145.249 462.252 145.249Z" fill="#4F5C70"/>
<path d="M285.249 145.249C245.14 145.249 212.625 112.734 212.625 72.6243C212.625 32.515 245.14 0 285.249 0C325.358 0 357.873 32.515 357.873 72.6243C357.873 112.734 325.358 145.249 285.249 145.249Z" fill="#4F5C70"/>
<path d="M393.23 312.04C353.121 312.04 320.606 279.525 320.606 239.416C320.606 199.307 353.121 166.792 393.23 166.792C433.339 166.792 465.854 199.307 465.854 239.416C465.854 279.525 433.339 312.04 393.23 312.04Z" fill="#4F5C70"/>
<path d="M604.398 416.521C604.398 430.884 608.657 444.925 616.637 456.868C624.617 468.811 635.959 478.12 649.23 483.617C662.5 489.113 677.102 490.552 691.19 487.749C705.278 484.947 718.218 478.03 728.375 467.874C738.532 457.717 745.449 444.777 748.251 430.689C751.053 416.601 749.615 401.999 744.118 388.728C738.621 375.458 729.313 364.116 717.37 356.136C705.427 348.156 691.386 343.896 677.022 343.896C667.473 343.854 658.01 345.703 649.18 349.338C640.349 352.973 632.326 358.32 625.574 365.073C618.822 371.825 613.474 379.848 609.839 388.678C606.205 397.509 604.355 406.971 604.398 416.521Z" fill="#4F5C70"/>
<path d="M500.624 489.145C460.515 489.145 428 456.63 428 416.521C428 376.412 460.515 343.897 500.624 343.897C540.734 343.897 573.249 376.412 573.249 416.521C573.249 456.63 540.734 489.145 500.624 489.145Z" fill="#4F5C70"/>
<path d="M592.589 212.165C586.926 212.165 582.336 207.574 582.336 201.912C582.336 196.249 586.926 191.658 592.589 191.658C598.252 191.658 602.842 196.249 602.842 201.912C602.842 207.574 598.252 212.165 592.589 212.165Z" fill="#2F2E41"/>
<path d="M576.184 251.128C561.838 251.128 550.209 239.498 550.209 225.153C550.209 210.807 561.838 199.177 576.184 199.177C590.529 199.177 602.159 210.807 602.159 225.153C602.159 239.498 590.529 251.128 576.184 251.128Z" fill="#2F2E41"/>
<path d="M574.034 251.121C562.377 251.121 552.927 241.671 552.927 230.014C552.927 218.356 562.377 208.906 574.034 208.906C585.692 208.906 595.142 218.356 595.142 230.014C595.142 241.671 585.692 251.121 574.034 251.121Z" fill="#9E616A"/>
<path d="M559.7 208.497C563.399 206.242 567.635 205.022 571.967 204.965C576.298 204.908 580.566 206.016 584.322 208.172C588.079 210.329 591.188 213.455 593.323 217.225C595.458 220.994 596.541 225.267 596.459 229.598C585.704 232.299 574.405 234.365 562.935 230.244L560.226 223.615L558.629 230.249C555.136 231.677 551.634 232.885 548.132 230.235C547.989 225.916 548.982 221.636 551.012 217.821C553.042 214.006 556.038 210.791 559.7 208.497Z" fill="#2F2E41"/>
<path d="M602.135 174.078C609.226 170.827 618.122 172.352 624.025 177.45C629.929 182.548 632.736 190.844 631.596 198.56C630.433 206.432 625.648 213.21 621.237 219.833C616.825 226.455 612.516 233.712 612.521 241.669C612.524 247.4 614.801 252.896 618.85 256.951C622.9 261.007 628.393 263.29 634.124 263.302C627.398 266.197 620.377 269.15 613.062 268.807C605.747 268.463 598.079 263.761 596.886 256.535C596.026 251.329 598.58 246.253 600.711 241.425C604.181 233.559 606.689 225.303 608.181 216.836C608.892 212.794 609.355 208.546 608.038 204.66C606.989 201.78 605.042 199.314 602.485 197.625C599.927 195.935 596.895 195.112 593.834 195.277L591.417 193.103C590.342 185.377 595.045 177.329 602.135 174.078Z" fill="#2F2E41"/>
<path d="M314.888 44.2177C315.885 49.5729 317.52 54.7896 319.757 59.7562C332.568 86.8577 296.084 78.024 283.047 78.024C268.791 78.024 255.152 85.5199 257.236 52.2129C258.125 37.9856 268.792 26.4019 283.047 26.4019C295.223 26.4019 312.342 31.8139 314.888 44.2177Z" fill="#2F2E41"/>
<path d="M285.182 78.0176C273.598 78.0176 264.208 68.627 264.208 57.0432C264.208 45.4593 273.598 36.0688 285.182 36.0688C296.766 36.0688 306.157 45.4593 306.157 57.0432C306.157 68.627 296.766 78.0176 285.182 78.0176Z" fill="#FFB6B6"/>
<path d="M299.426 35.6627C295.751 33.422 291.541 32.21 287.237 32.1532C282.933 32.0965 278.692 33.1971 274.959 35.3401C271.226 37.483 268.137 40.5896 266.015 44.335C263.894 48.0803 262.817 52.3269 262.899 56.6306C273.586 59.3139 284.814 61.3674 296.212 57.2724L298.903 50.6849L300.49 57.2773C303.961 58.696 307.441 59.8964 310.921 57.2636C311.063 52.972 310.076 48.7183 308.059 44.9276C306.042 41.137 303.065 37.9422 299.426 35.6627Z" fill="#2F2E41"/>
<path d="M502.223 424.054C490.055 424.054 480.191 414.19 480.191 402.022C480.191 389.853 490.055 379.989 502.223 379.989C514.391 379.989 524.255 389.853 524.255 402.022C524.255 414.19 514.391 424.054 502.223 424.054Z" fill="#9E616A"/>
<path d="M459.292 80.0325C446.213 80.0325 435.61 69.4299 435.61 56.351C435.61 43.2721 446.213 32.6695 459.292 32.6695C472.371 32.6695 482.973 43.2721 482.973 56.351C482.973 69.4299 472.371 80.0325 459.292 80.0325Z" fill="#FFB8B8"/>
<path d="M438.441 40.7065C438.441 40.7065 432.275 28.9193 445.84 27.8477C445.84 27.8477 457.404 17.3574 469.192 25.93C469.192 25.93 475.621 25.93 479.137 33.2056C479.137 33.2056 484.193 31.2878 485.305 36.4203C485.305 36.4203 489.005 47.1359 485.305 56.78C481.605 66.4241 480.376 67.4957 480.376 67.4957C480.376 67.4957 482.972 55.5279 468.172 54.4563C453.373 53.3848 439.796 44.1135 438.562 55.9007C437.329 67.6879 435.973 62.3632 435.973 62.3632C435.973 62.3632 424.259 45.5286 438.441 40.7065Z" fill="#2F2E41"/>
<path d="M395.235 248.413C382.431 248.413 372.052 238.033 372.052 225.23C372.052 212.427 382.431 202.048 395.235 202.048C408.038 202.048 418.417 212.427 418.417 225.23C418.417 238.033 408.038 248.413 395.235 248.413Z" fill="#FFB6B6"/>
<path d="M647.32 399.144L647.68 399.791C644.481 391.909 647.39 382.196 653.095 376.252C658.801 370.308 666.733 367.591 674.543 366.513C680.341 365.713 686.36 365.736 691.873 367.86C699.856 370.935 705.956 378.055 711.049 385.461C713.378 388.849 715.669 392.711 715.436 396.945C715.221 400.874 712.889 404.209 710.979 407.542C709.068 410.876 707.473 415.012 708.844 418.65C709.661 420.819 711.388 422.38 712.789 424.154C714.189 425.928 715.342 428.325 714.665 430.55C714.365 431.402 713.849 432.161 713.167 432.753C712.486 433.345 711.662 433.751 710.777 433.929C709.084 434.324 707.327 434.066 705.612 433.807L661.092 427.081C658.067 426.624 655.197 425.442 652.728 423.636C650.258 421.83 648.262 419.454 646.909 416.71C645.556 413.965 644.887 410.935 644.959 407.876C645.03 404.818 645.84 401.822 647.32 399.144Z" fill="#2F2E41"/>
<path d="M658.949 408.491C657.024 396.625 665.082 385.444 676.948 383.519C688.814 381.593 699.994 389.652 701.92 401.517C703.845 413.383 695.787 424.564 683.921 426.489C672.055 428.415 660.875 420.357 658.949 408.491Z" fill="#FFB9B9"/>
<path d="M622.49 464.471C635.072 478.788 652.779 487.582 671.789 488.956C690.798 490.33 709.586 484.173 724.096 471.815L717.867 454.433C716.459 451.346 714.238 448.7 711.441 446.779C708.644 444.859 705.376 443.736 701.99 443.531L698.027 443.287L688.578 435.137C688.578 435.137 663.117 434.228 663.495 433.793L648.072 443.07L648.085 443.006L642.022 443.377C638.635 443.581 635.368 444.704 632.571 446.625C629.773 448.546 627.552 451.192 626.145 454.279L622.49 464.471Z" fill="white"/>
<path d="M447.075 464.471C459.657 478.788 477.364 487.582 496.374 488.956C515.384 490.33 534.171 484.173 548.681 471.815L542.452 454.433C541.044 451.346 538.823 448.7 536.026 446.779C533.229 444.859 529.962 443.736 526.575 443.531L522.612 443.287L513.163 435.137C513.163 435.137 487.702 434.228 488.08 433.793L472.657 443.07L472.67 443.006L466.607 443.377C463.22 443.581 459.953 444.704 457.156 446.625C454.359 448.546 452.137 451.192 450.73 454.279L447.075 464.471Z" fill="white"/>
<path d="M659.788 384.802C660.35 381.83 663.382 380.471 665.979 379.812C673.513 377.89 681.351 377.459 689.05 378.545C694.662 379.345 700.408 381.11 704.48 385.491C707.764 389.18 709.625 393.919 709.728 398.856C709.894 401.809 709.234 404.749 707.823 407.347C706.357 409.828 703.86 411.627 701.281 411.564L701.02 412.472C690.092 410.949 679.94 404.15 673.547 394.07C674.747 398.355 677.135 402.212 680.435 405.197C673.057 402.245 666.643 397.302 661.909 390.92C660.616 389.204 659.361 387.064 659.788 384.802Z" fill="#2F2E41"/>
<path d="M518.002 288.007C530.584 302.323 548.291 311.118 567.301 312.492C586.311 313.865 605.098 307.709 619.608 295.35L613.379 277.969C611.971 274.882 609.75 272.236 606.953 270.315C604.156 268.394 600.889 267.271 597.502 267.066L593.539 266.823L584.09 258.673C584.09 258.673 558.629 257.764 559.007 257.329L543.584 266.605L543.597 266.541L537.534 266.913C534.147 267.117 530.88 268.24 528.083 270.16C525.286 272.081 523.064 274.727 521.657 277.815L518.002 288.007Z" fill="white"/>
<path d="M338.746 288.007C351.328 302.323 369.035 311.118 388.045 312.492C407.055 313.865 425.842 307.709 440.352 295.35L434.123 277.969C432.715 274.882 430.494 272.236 427.697 270.315C424.9 268.394 421.633 267.271 418.246 267.066L414.283 266.823L404.834 258.673C404.834 258.673 379.373 257.764 379.751 257.329L364.328 266.605L364.341 266.541L358.278 266.913C354.891 267.117 351.624 268.24 348.827 270.16C346.03 272.081 343.808 274.727 342.401 277.815L338.746 288.007Z" fill="white"/>
<path d="M408.036 120.915C420.618 135.231 438.325 144.026 457.335 145.399C476.345 146.773 495.133 140.616 509.642 128.258L503.413 110.877C502.006 107.789 499.784 105.144 496.987 103.223C494.19 101.302 490.923 100.179 487.536 99.974L483.573 99.7307L474.124 91.581C474.124 91.581 448.663 90.6719 449.041 90.2366L433.619 99.5131L433.631 99.449L427.569 99.8204C424.182 100.025 420.914 101.147 418.117 103.068C415.32 104.989 413.099 107.635 411.692 110.723L408.036 120.915Z" fill="white"/>
<path d="M228.78 120.915C241.362 135.231 259.069 144.026 278.079 145.399C297.089 146.773 315.877 140.616 330.386 128.258L324.157 110.877C322.75 107.789 320.528 105.144 317.731 103.223C314.934 101.302 311.667 100.179 308.28 99.974L304.318 99.7307L294.868 91.581C294.868 91.581 269.407 90.6719 269.785 90.2366L254.363 99.5131L254.376 99.449L248.313 99.8204C244.926 100.025 241.658 101.147 238.861 103.068C236.064 104.989 233.843 107.635 232.436 110.723L228.78 120.915Z" fill="white"/>
<path d="M370.785 210.853C372.744 203.841 377.195 197.785 383.302 193.823C388.169 190.71 394.242 189.12 399.756 190.767C405.27 192.413 409.835 197.824 409.474 203.671C411.464 202.993 413.727 203.894 415.184 205.434C416.641 206.973 417.424 209.044 417.985 211.106C419.755 217.661 419.637 224.582 417.647 231.073L417.757 232.005C415.066 231.56 413.026 229.252 411.757 226.793C410.488 224.334 409.758 221.606 408.383 219.207C407.008 216.808 404.724 214.668 402 214.593L402.24 218.757C399.896 217.549 397.552 216.342 395.209 215.134C395.766 216.468 396.324 217.802 396.881 219.135C394.834 218.28 392.787 217.424 390.74 216.569C390.969 217.851 391.198 219.133 391.427 220.416C389.397 215.795 383.119 213.765 378.848 216.349C376.368 217.849 374.741 220.523 373.885 223.331C373.029 226.139 372.86 229.109 372.696 232.045C369.534 225.44 368.855 217.917 370.785 210.853Z" fill="#2F2E41"/>
<path d="M522.243 412.207C522.286 412.087 522.325 411.965 522.368 411.844C522.453 411.919 522.534 411.996 522.626 412.066L522.243 412.207Z" fill="#2F2E41"/>
<path d="M475.831 394.183C475.944 391.948 476.529 389.762 477.549 387.769C478.568 385.776 479.999 384.022 481.745 382.622C483.029 381.607 484.515 380.749 485.365 379.35C485.85 378.36 486.261 377.335 486.594 376.284C488.286 372.258 493.106 370.119 497.43 370.728C501.754 371.338 505.496 374.246 508.016 377.812C509.258 377.217 510.645 376.99 512.011 377.159C513.378 377.327 514.668 377.884 515.728 378.763C516.788 379.641 517.574 380.805 517.994 382.117C518.413 383.429 518.447 384.833 518.093 386.164C520.332 384.36 523.954 385.803 525.352 388.316C526.749 390.829 526.527 393.903 526.112 396.748C525.359 401.89 524.105 406.947 522.368 411.844C520.187 409.925 520.321 406.428 520.588 403.473C520.865 400.402 520.699 396.653 518.014 395.138C515.42 393.674 512.271 395.281 509.411 396.113C507.149 396.753 504.776 396.896 502.454 396.53C500.132 396.165 497.917 395.301 495.961 393.997C494.471 392.989 493.145 391.726 491.539 390.916C489.933 390.106 487.889 389.824 486.393 390.824C485.027 391.738 484.472 393.441 484.007 395.017C482.906 398.752 481.805 402.486 480.704 406.221C479.087 404.673 477.817 402.8 476.977 400.725C476.137 398.65 475.746 396.42 475.831 394.183Z" fill="#2F2E41"/>
<path d="M220.624 312.04C180.515 312.04 148 279.525 148 239.416C148 199.307 180.515 166.792 220.624 166.792C260.734 166.792 293.249 199.307 293.249 239.416C293.249 279.525 260.734 312.04 220.624 312.04Z" fill="#4F5C70"/>
<path d="M219.975 242.444C203.981 242.444 191.015 229.478 191.015 213.484C191.015 197.489 203.981 184.523 219.975 184.523C235.97 184.523 248.936 197.489 248.936 213.484C248.936 229.478 235.97 242.444 219.975 242.444Z" fill="#2F2E41"/>
<path d="M37.0007 72.7531C37.0262 87.1168 41.3104 101.15 49.3116 113.079C57.3128 125.008 68.6717 134.296 81.9518 139.77C95.2318 145.243 109.837 146.655 123.919 143.828C138.002 141.001 150.93 134.061 161.069 123.886C171.208 113.712 178.101 100.759 180.879 86.6663C183.656 72.5736 182.192 57.9738 176.672 44.7132C171.151 31.4527 161.823 20.1268 149.866 12.168C137.908 4.20908 123.86 -0.0253517 109.496 0.000114192C99.952 -0.00773134 90.5003 1.8706 81.6844 5.52718C72.8685 9.18376 64.8622 14.5465 58.1254 21.3072C51.3887 28.0679 46.0544 36.0932 42.4291 44.922C38.8038 53.7508 36.959 63.209 37.0007 72.7531Z" fill="#4F5C70"/>
<path d="M143.286 48.9997C140.283 39.4293 133.454 30.6516 124.009 27.4163C114.565 24.181 100.735 29.1094 93.6349 36.1858C80.647 49.1298 77.4774 93.5971 86.4007 107.649C88.1755 107.555 94.2999 107.486 96.0962 107.419L98.6374 98.9489V107.335C101.499 107.247 104.384 107.186 107.29 107.152C117.036 107.031 126.355 103.136 133.288 96.2871C140.222 89.4376 144.229 80.1668 144.469 70.4236C144.702 61.1028 144.469 52.7711 143.286 48.9997Z" fill="#2F2E41"/>
<path d="M110.702 80.7183C99.2711 80.7183 90.0046 71.4517 90.0046 60.0208C90.0046 48.59 99.2711 39.3234 110.702 39.3234C122.133 39.3234 131.399 48.59 131.399 60.0208C131.399 71.4517 122.133 80.7183 110.702 80.7183Z" fill="#9E616A"/>
<path d="M128.564 41.8435L104.733 29.9107C99.8613 32.1062 95.6652 35.5651 92.5804 39.9288C89.4956 44.2925 87.6344 49.402 87.1898 54.7274L86.5958 61.8425L96.5751 59.3022L97.6684 50.2042L99.363 58.5925L103.968 57.4207L103.925 43.2961L108.533 57.4106L124.981 53.6316L128.564 41.8435Z" fill="#2F2E41"/>
<path d="M219.964 246.248C205.675 246.248 194.092 234.665 194.092 220.377C194.092 206.088 205.675 194.505 219.964 194.505C234.252 194.505 245.835 206.088 245.835 220.377C245.835 234.665 234.252 246.248 219.964 246.248Z" fill="#FFB8B8"/>
<path d="M166.339 287.136C178.921 301.452 196.628 310.247 215.637 311.62C234.647 312.994 253.435 306.838 267.945 294.479L261.716 277.098C260.308 274.011 258.086 271.365 255.289 269.444C252.492 267.523 249.225 266.4 245.839 266.195L241.876 265.952L232.426 257.802C232.426 257.802 206.966 256.893 207.343 256.458L191.921 265.734L191.934 265.67L185.871 266.041C182.484 266.246 179.217 267.368 176.42 269.289C173.622 271.21 171.401 273.856 169.994 276.944L166.339 287.136Z" fill="white"/>
<path d="M55.7327 120.684C68.3147 135 86.0218 143.795 105.032 145.169C124.042 146.542 142.829 140.386 157.339 128.027L151.11 110.646C149.702 107.559 147.481 104.913 144.684 102.992C141.887 101.071 138.62 99.9483 135.233 99.7431L131.27 99.4998L121.821 91.3501C121.821 91.3501 96.3598 90.441 96.7375 90.0057L81.3151 99.2822L81.3279 99.2182L75.2653 99.5895C71.8783 99.7937 68.6108 100.917 65.8137 102.837C63.0165 104.758 60.7952 107.404 59.3883 110.492L55.7327 120.684Z" fill="white"/>
<path d="M192.669 211.304C192.487 209.372 192.404 207.432 192.42 205.492C192.314 201.656 193.017 197.839 194.483 194.292C196.286 190.364 199.5 187.259 203.488 185.592C207.44 183.998 211.858 184.002 215.807 185.603C219.373 183.35 223.335 181.564 227.508 181.343C231.68 181.122 236.092 182.67 238.663 186.077C239.237 186.977 239.89 187.824 240.612 188.609C242.679 190.523 245.82 190.247 248.568 189.856C247.335 190.912 246.103 191.968 244.87 193.024C246.362 193.414 247.853 193.804 249.345 194.193C247.604 195.249 245.864 196.305 244.123 197.361C249.177 200.394 251.473 207.014 250.867 213.026C250.293 218.719 247.544 223.924 244.259 228.551C242.949 225.785 243.231 222.476 243.253 219.361C243.265 218.351 243.203 217.341 243.068 216.339C231.965 219.001 220.364 220.709 208.6 216.482L206.239 210.704C205.907 210.738 205.576 210.77 205.245 210.805L203.877 216.487C200.776 217.755 197.668 218.863 194.559 217.699C194.408 218.576 194.317 219.472 194.247 220.333C193.98 219.303 193.749 218.266 193.54 217.224C193.129 217.004 192.736 216.752 192.363 216.472C192.288 214.743 192.39 213.011 192.669 211.304Z" fill="#2F2E41"/>
<path d="M40 375.5L0.5 539H28V530.5H31.5V539H58V530.5H61.5V539H87.5V530.5H91V539H117.5V530.5H121V539H148V530.5H151.5V539H178V530.5H181.5V539H205.5V530.5H209V539H236V530.5H239.5V539H266V530.5H269.5V539H296.5V530.5H300V539H327V530.5H330.5V539H356.5V530.5H360V539H386.5L347 375.5H40Z" fill="white"/>
<path d="M347 375.5H40L59 366H328.5L347 375.5Z" fill="#D1D2D4"/>
<path d="M51.5 408.5L31.5 505H192.5V408.5H51.5Z" fill="#96BCBB"/>
<path d="M48 406L51.5 408.5H192.5H194V406H48Z" fill="#9C9C9E"/>
<path d="M194 507.5V408.5H192.5V505L194 507.5Z" fill="#89B4B3"/>
<path d="M31.5 505L28 507.5H194L192.5 505H31.5Z" fill="#EBE8EA"/>
<path d="M51.5 408.5L31.5 505L28 507.5L48 406L51.5 408.5Z" fill="#D9D9D9"/>
<path d="M224 520V422H342.634L363 520H224Z" fill="#57585A"/>
<path d="M226 518.5V422H342.5L362.5 518.5H226Z" fill="#6C6D70"/>
<g filter="url(#filter0_d_188_186)">
<path d="M240 438V425H266L266.5 438H240Z" fill="#57585A"/>
</g>
<g filter="url(#filter1_d_188_186)">
<path d="M240 456V443H266L266.5 456H240Z" fill="#57585A"/>
</g>
<g filter="url(#filter2_d_188_186)">
<path d="M240 474V461H266L266.5 474H240Z" fill="#57585A"/>
</g>
<g filter="url(#filter3_d_188_186)">
<path d="M234 514V498H269.321L270 514H234Z" fill="white"/>
</g>
<g filter="url(#filter4_d_188_186)">
<path d="M271.5 438L271 425H297.5L298 438H271.5Z" fill="#57585A"/>
</g>
<g filter="url(#filter5_d_188_186)">
<path d="M273 456L272.5 443H299L299.5 456H273Z" fill="#57585A"/>
</g>
<g filter="url(#filter6_d_188_186)">
<path d="M274.5 474L274 461H300.5L301 474H274.5Z" fill="#57585A"/>
</g>
<g filter="url(#filter7_d_188_186)">
<path d="M275.519 492L275 479H302.481L303 492H275.519Z" fill="#57585A"/>
</g>
<g filter="url(#filter8_d_188_186)">
<path d="M275.611 514L275 499H307.389L308 514H275.611Z" fill="#DE6C45"/>
</g>
<g filter="url(#filter9_d_188_186)">
<path d="M303.5 438L303 425H329L330 438H303.5Z" fill="#57585A"/>
</g>
<g filter="url(#filter10_d_188_186)">
<path d="M305.5 456L305 443H331L332 456H305.5Z" fill="#57585A"/>
</g>
<g filter="url(#filter11_d_188_186)">
<path d="M306.5 474L306 461H332L333 474H306.5Z" fill="#57585A"/>
</g>
<g filter="url(#filter12_d_188_186)">
<path d="M314.63 514L313 497H345.741L348 514H314.63Z" fill="#3AB54A"/>
</g>
<g filter="url(#filter13_i_188_186)">
<path d="M225.5 391.5V417H339.5L335 391.5H225.5Z" fill="#E6E7E9"/>
</g>
<defs>
<filter id="filter0_d_188_186" x="239" y="425" width="27.5" height="14" filterUnits="userSpaceOnUse" color-interpolation-filters="sRGB">
<feFlood flood-opacity="0" result="BackgroundImageFix"/>
<feColorMatrix in="SourceAlpha" type="matrix" values="0 0 0 0 0 0 0 0 0 0 0 0 0 0 0 0 0 0 127 0" result="hardAlpha"/>
<feOffset dx="-1" dy="1"/>
<feComposite in2="hardAlpha" operator="out"/>
<feColorMatrix type="matrix" values="0 0 0 0 0.2 0 0 0 0 0.192157 0 0 0 0 0.196078 0 0 0 1 0"/>
<feBlend mode="normal" in2="BackgroundImageFix" result="effect1_dropShadow_188_186"/>
<feBlend mode="normal" in="SourceGraphic" in2="effect1_dropShadow_188_186" result="shape"/>
</filter>
<filter id="filter1_d_188_186" x="239" y="443" width="27.5" height="14" filterUnits="userSpaceOnUse" color-interpolation-filters="sRGB">
<feFlood flood-opacity="0" result="BackgroundImageFix"/>
<feColorMatrix in="SourceAlpha" type="matrix" values="0 0 0 0 0 0 0 0 0 0 0 0 0 0 0 0 0 0 127 0" result="hardAlpha"/>
<feOffset dx="-1" dy="1"/>
<feComposite in2="hardAlpha" operator="out"/>
<feColorMatrix type="matrix" values="0 0 0 0 0.2 0 0 0 0 0.192157 0 0 0 0 0.196078 0 0 0 1 0"/>
<feBlend mode="normal" in2="BackgroundImageFix" result="effect1_dropShadow_188_186"/>
<feBlend mode="normal" in="SourceGraphic" in2="effect1_dropShadow_188_186" result="shape"/>
</filter>
<filter id="filter2_d_188_186" x="239" y="461" width="27.5" height="14" filterUnits="userSpaceOnUse" color-interpolation-filters="sRGB">
<feFlood flood-opacity="0" result="BackgroundImageFix"/>
<feColorMatrix in="SourceAlpha" type="matrix" values="0 0 0 0 0 0 0 0 0 0 0 0 0 0 0 0 0 0 127 0" result="hardAlpha"/>
<feOffset dx="-1" dy="1"/>
<feComposite in2="hardAlpha" operator="out"/>
<feColorMatrix type="matrix" values="0 0 0 0 0.2 0 0 0 0 0.192157 0 0 0 0 0.196078 0 0 0 1 0"/>
<feBlend mode="normal" in2="BackgroundImageFix" result="effect1_dropShadow_188_186"/>
<feBlend mode="normal" in="SourceGraphic" in2="effect1_dropShadow_188_186" result="shape"/>
</filter>
<filter id="filter3_d_188_186" x="233" y="498" width="37" height="17" filterUnits="userSpaceOnUse" color-interpolation-filters="sRGB">
<feFlood flood-opacity="0" result="BackgroundImageFix"/>
<feColorMatrix in="SourceAlpha" type="matrix" values="0 0 0 0 0 0 0 0 0 0 0 0 0 0 0 0 0 0 127 0" result="hardAlpha"/>
<feOffset dx="-1" dy="1"/>
<feComposite in2="hardAlpha" operator="out"/>
<feColorMatrix type="matrix" values="0 0 0 0 0.552941 0 0 0 0 0.556863 0 0 0 0 0.572549 0 0 0 1 0"/>
<feBlend mode="normal" in2="BackgroundImageFix" result="effect1_dropShadow_188_186"/>
<feBlend mode="normal" in="SourceGraphic" in2="effect1_dropShadow_188_186" result="shape"/>
</filter>
<filter id="filter4_d_188_186" x="270" y="425" width="28" height="14" filterUnits="userSpaceOnUse" color-interpolation-filters="sRGB">
<feFlood flood-opacity="0" result="BackgroundImageFix"/>
<feColorMatrix in="SourceAlpha" type="matrix" values="0 0 0 0 0 0 0 0 0 0 0 0 0 0 0 0 0 0 127 0" result="hardAlpha"/>
<feOffset dx="-1" dy="1"/>
<feComposite in2="hardAlpha" operator="out"/>
<feColorMatrix type="matrix" values="0 0 0 0 0.2 0 0 0 0 0.192157 0 0 0 0 0.196078 0 0 0 1 0"/>
<feBlend mode="normal" in2="BackgroundImageFix" result="effect1_dropShadow_188_186"/>
<feBlend mode="normal" in="SourceGraphic" in2="effect1_dropShadow_188_186" result="shape"/>
</filter>
<filter id="filter5_d_188_186" x="271.5" y="443" width="28" height="14" filterUnits="userSpaceOnUse" color-interpolation-filters="sRGB">
<feFlood flood-opacity="0" result="BackgroundImageFix"/>
<feColorMatrix in="SourceAlpha" type="matrix" values="0 0 0 0 0 0 0 0 0 0 0 0 0 0 0 0 0 0 127 0" result="hardAlpha"/>
<feOffset dx="-1" dy="1"/>
<feComposite in2="hardAlpha" operator="out"/>
<feColorMatrix type="matrix" values="0 0 0 0 0.2 0 0 0 0 0.192157 0 0 0 0 0.196078 0 0 0 1 0"/>
<feBlend mode="normal" in2="BackgroundImageFix" result="effect1_dropShadow_188_186"/>
<feBlend mode="normal" in="SourceGraphic" in2="effect1_dropShadow_188_186" result="shape"/>
</filter>
<filter id="filter6_d_188_186" x="273" y="461" width="28" height="14" filterUnits="userSpaceOnUse" color-interpolation-filters="sRGB">
<feFlood flood-opacity="0" result="BackgroundImageFix"/>
<feColorMatrix in="SourceAlpha" type="matrix" values="0 0 0 0 0 0 0 0 0 0 0 0 0 0 0 0 0 0 127 0" result="hardAlpha"/>
<feOffset dx="-1" dy="1"/>
<feComposite in2="hardAlpha" operator="out"/>
<feColorMatrix type="matrix" values="0 0 0 0 0.2 0 0 0 0 0.192157 0 0 0 0 0.196078 0 0 0 1 0"/>
<feBlend mode="normal" in2="BackgroundImageFix" result="effect1_dropShadow_188_186"/>
<feBlend mode="normal" in="SourceGraphic" in2="effect1_dropShadow_188_186" result="shape"/>
</filter>
<filter id="filter7_d_188_186" x="274" y="479" width="29" height="14" filterUnits="userSpaceOnUse" color-interpolation-filters="sRGB">
<feFlood flood-opacity="0" result="BackgroundImageFix"/>
<feColorMatrix in="SourceAlpha" type="matrix" values="0 0 0 0 0 0 0 0 0 0 0 0 0 0 0 0 0 0 127 0" result="hardAlpha"/>
<feOffset dx="-1" dy="1"/>
<feComposite in2="hardAlpha" operator="out"/>
<feColorMatrix type="matrix" values="0 0 0 0 0.2 0 0 0 0 0.192157 0 0 0 0 0.196078 0 0 0 1 0"/>
<feBlend mode="normal" in2="BackgroundImageFix" result="effect1_dropShadow_188_186"/>
<feBlend mode="normal" in="SourceGraphic" in2="effect1_dropShadow_188_186" result="shape"/>
</filter>
<filter id="filter8_d_188_186" x="274" y="499" width="34" height="16" filterUnits="userSpaceOnUse" color-interpolation-filters="sRGB">
<feFlood flood-opacity="0" result="BackgroundImageFix"/>
<feColorMatrix in="SourceAlpha" type="matrix" values="0 0 0 0 0 0 0 0 0 0 0 0 0 0 0 0 0 0 127 0" result="hardAlpha"/>
<feOffset dx="-1" dy="1"/>
<feComposite in2="hardAlpha" operator="out"/>
<feColorMatrix type="matrix" values="0 0 0 0 0.545098 0 0 0 0 0.356863 0 0 0 0 0.301961 0 0 0 1 0"/>
<feBlend mode="normal" in2="BackgroundImageFix" result="effect1_dropShadow_188_186"/>
<feBlend mode="normal" in="SourceGraphic" in2="effect1_dropShadow_188_186" result="shape"/>
</filter>
<filter id="filter9_d_188_186" x="302" y="425" width="28" height="14" filterUnits="userSpaceOnUse" color-interpolation-filters="sRGB">
<feFlood flood-opacity="0" result="BackgroundImageFix"/>
<feColorMatrix in="SourceAlpha" type="matrix" values="0 0 0 0 0 0 0 0 0 0 0 0 0 0 0 0 0 0 127 0" result="hardAlpha"/>
<feOffset dx="-1" dy="1"/>
<feComposite in2="hardAlpha" operator="out"/>
<feColorMatrix type="matrix" values="0 0 0 0 0.2 0 0 0 0 0.192157 0 0 0 0 0.196078 0 0 0 1 0"/>
<feBlend mode="normal" in2="BackgroundImageFix" result="effect1_dropShadow_188_186"/>
<feBlend mode="normal" in="SourceGraphic" in2="effect1_dropShadow_188_186" result="shape"/>
</filter>
<filter id="filter10_d_188_186" x="304" y="443" width="28" height="14" filterUnits="userSpaceOnUse" color-interpolation-filters="sRGB">
<feFlood flood-opacity="0" result="BackgroundImageFix"/>
<feColorMatrix in="SourceAlpha" type="matrix" values="0 0 0 0 0 0 0 0 0 0 0 0 0 0 0 0 0 0 127 0" result="hardAlpha"/>
<feOffset dx="-1" dy="1"/>
<feComposite in2="hardAlpha" operator="out"/>
<feColorMatrix type="matrix" values="0 0 0 0 0.2 0 0 0 0 0.192157 0 0 0 0 0.196078 0 0 0 1 0"/>
<feBlend mode="normal" in2="BackgroundImageFix" result="effect1_dropShadow_188_186"/>
<feBlend mode="normal" in="SourceGraphic" in2="effect1_dropShadow_188_186" result="shape"/>
</filter>
<filter id="filter11_d_188_186" x="305" y="461" width="28" height="14" filterUnits="userSpaceOnUse" color-interpolation-filters="sRGB">
<feFlood flood-opacity="0" result="BackgroundImageFix"/>
<feColorMatrix in="SourceAlpha" type="matrix" values="0 0 0 0 0 0 0 0 0 0 0 0 0 0 0 0 0 0 127 0" result="hardAlpha"/>
<feOffset dx="-1" dy="1"/>
<feComposite in2="hardAlpha" operator="out"/>
<feColorMatrix type="matrix" values="0 0 0 0 0.2 0 0 0 0 0.192157 0 0 0 0 0.196078 0 0 0 1 0"/>
<feBlend mode="normal" in2="BackgroundImageFix" result="effect1_dropShadow_188_186"/>
<feBlend mode="normal" in="SourceGraphic" in2="effect1_dropShadow_188_186" result="shape"/>
</filter>
<filter id="filter12_d_188_186" x="312" y="497" width="36" height="18" filterUnits="userSpaceOnUse" color-interpolation-filters="sRGB">
<feFlood flood-opacity="0" result="BackgroundImageFix"/>
<feColorMatrix in="SourceAlpha" type="matrix" values="0 0 0 0 0 0 0 0 0 0 0 0 0 0 0 0 0 0 127 0" result="hardAlpha"/>
<feOffset dx="-1" dy="1"/>
<feComposite in2="hardAlpha" operator="out"/>
<feColorMatrix type="matrix" values="0 0 0 0 0.282353 0 0 0 0 0.411765 0 0 0 0 0.32549 0 0 0 1 0"/>
<feBlend mode="normal" in2="BackgroundImageFix" result="effect1_dropShadow_188_186"/>
<feBlend mode="normal" in="SourceGraphic" in2="effect1_dropShadow_188_186" result="shape"/>
</filter>
<filter id="filter13_i_188_186" x="225.5" y="391.5" width="114" height="25.5" filterUnits="userSpaceOnUse" color-interpolation-filters="sRGB">
<feFlood flood-opacity="0" result="BackgroundImageFix"/>
<feBlend mode="normal" in="SourceGraphic" in2="BackgroundImageFix" result="shape"/>
<feColorMatrix in="SourceAlpha" type="matrix" values="0 0 0 0 0 0 0 0 0 0 0 0 0 0 0 0 0 0 127 0" result="hardAlpha"/>
<feOffset dx="1" dy="1"/>
<feComposite in2="hardAlpha" operator="arithmetic" k2="-1" k3="1"/>
<feColorMatrix type="matrix" values="0 0 0 0 0.87451 0 0 0 0 0.87451 0 0 0 0 0.882353 0 0 0 1 0"/>
<feBlend mode="normal" in2="shape" result="effect1_innerShadow_188_186"/>
</filter>
</defs>
</svg>
